<svg width="38" height="39" viewBox="0 0 38 39" fill="none" xmlns="http://www.w3.org/2000/svg">
<path opacity="0.4" d="M14.9149 3.92003L6.20655 7.18169C4.54405 7.79919 3.18237 9.77835 3.18237 11.5517V24.3767C3.18237 25.6592 4.02155 27.3534 5.05072 28.1134L13.7591 34.6209C15.2949 35.7767 17.8124 35.7767 19.3482 34.6209L28.0565 28.1134C29.0857 27.3375 29.9249 25.6592 29.9249 24.3767V11.5517C29.9249 9.77835 28.5632 7.79919 26.9007 7.18169L18.1924 3.92003C17.2899 3.58753 15.8174 3.58753 14.9149 3.92003Z" fill="#FF4D9E"/>
<path d="M30.4949 11.2033H19.6491C19.3324 11.2033 19.0316 11.2192 18.7466 11.2192C16.0232 11.3775 15.2949 12.375 15.2949 15.4783V16.5333C15.2949 16.9475 15.6307 17.2833 16.0449 17.2833H34.0832C34.4975 17.2833 34.8332 16.9475 34.8332 16.5333V15.4783C34.8332 12.0583 33.9624 11.2033 30.4949 11.2033Z" fill="#FF4D9E"/>
<path d="M16.0608 19.025C15.6466 19.025 15.3108 19.3608 15.3108 19.775V23.5217C15.3108 26.9417 16.1816 27.8125 19.6491 27.8125H30.495C33.8991 27.8125 34.8016 26.9892 34.8333 23.7117V19.775C34.8333 19.3608 34.4975 19.025 34.0833 19.025H16.0608ZM21.0108 24.9942H19.0316C18.5566 24.9942 18.1766 24.6142 18.1766 24.1392C18.1766 23.6642 18.5566 23.2842 19.0316 23.2842H21.0108C21.4858 23.2842 21.8658 23.6642 21.8658 24.1392C21.8658 24.6142 21.4858 24.9942 21.0108 24.9942ZM27.4233 24.9942H23.4808C23.0058 24.9942 22.6258 24.6142 22.6258 24.1392C22.6258 23.6642 23.0058 23.2842 23.4808 23.2842H27.4233C27.8983 23.2842 28.2783 23.6642 28.2783 24.1392C28.2941 24.6142 27.8983 24.9942 27.4233 24.9942Z" fill="#FF4D9E"/>
</svg>
