<svg width="70" height="70" viewBox="0 0 70 70" fill="none" xmlns="http://www.w3.org/2000/svg">
<path opacity="0.4" d="M64.1666 40.8334V49.5834C64.1666 54.425 60.2582 58.3334 55.4166 58.3334H52.4999C52.4999 55.125 49.8749 52.5 46.6666 52.5C43.4582 52.5 40.8333 55.125 40.8333 58.3334H29.1666C29.1666 55.125 26.5416 52.5 23.3333 52.5C20.1249 52.5 17.4999 55.125 17.4999 58.3334H14.5833C9.74159 58.3334 5.83325 54.425 5.83325 49.5834V40.8334H37.9166C41.1249 40.8334 43.7499 38.2084 43.7499 35V14.5834H49.1167C51.2167 14.5834 53.1416 15.7209 54.1916 17.5292L59.179 26.25H55.4166C53.8124 26.25 52.4999 27.5625 52.4999 29.1667V37.9167C52.4999 39.5209 53.8124 40.8334 55.4166 40.8334H64.1666Z" fill="white"/>
<path d="M23.3333 64.1667C26.555 64.1667 29.1667 61.555 29.1667 58.3333C29.1667 55.1117 26.555 52.5 23.3333 52.5C20.1117 52.5 17.5 55.1117 17.5 58.3333C17.5 61.555 20.1117 64.1667 23.3333 64.1667Z" fill="white"/>
<path d="M46.6666 64.1667C49.8882 64.1667 52.4999 61.555 52.4999 58.3333C52.4999 55.1117 49.8882 52.5 46.6666 52.5C43.4449 52.5 40.8333 55.1117 40.8333 58.3333C40.8333 61.555 43.4449 64.1667 46.6666 64.1667Z" fill="white"/>
<path d="M64.1667 36.5459V40.8333H55.4167C53.8125 40.8333 52.5 39.5208 52.5 37.9167V29.1667C52.5 27.5625 53.8125 26.25 55.4167 26.25H59.1791L63.4083 33.6583C63.9041 34.5333 64.1667 35.5251 64.1667 36.5459Z" fill="white"/>
<path d="M40.8335 5.83337H17.5002C11.8127 5.83337 7.08771 9.91671 6.06688 15.3125H20.4168C21.6127 15.3125 22.6043 16.3042 22.6043 17.5C22.6043 18.6959 21.6127 19.6875 20.4168 19.6875H5.8335V24.0625H14.5835C15.7793 24.0625 16.771 25.0542 16.771 26.25C16.771 27.4459 15.7793 28.4375 14.5835 28.4375H5.8335V32.8125H8.75016C9.946 32.8125 10.9377 33.8042 10.9377 35C10.9377 36.1959 9.946 37.1875 8.75016 37.1875H5.8335V40.8334H37.9168C41.1252 40.8334 43.7502 38.2084 43.7502 35V8.75004C43.7502 7.14587 42.4377 5.83337 40.8335 5.83337Z" fill="white"/>
<path d="M6.0668 15.3125H2.91675C1.72091 15.3125 0.729248 16.3042 0.729248 17.5C0.729248 18.6958 1.72091 19.6875 2.91675 19.6875H5.83342V17.5C5.83342 16.7417 5.92096 16.0125 6.0668 15.3125Z" fill="white"/>
<path d="M2.91675 24.0625C1.72091 24.0625 0.729248 25.0542 0.729248 26.25C0.729248 27.4458 1.72091 28.4375 2.91675 28.4375H5.83342V24.0625H2.91675Z" fill="white"/>
<path d="M2.91675 32.8125C1.72091 32.8125 0.729248 33.8042 0.729248 35C0.729248 36.1958 1.72091 37.1875 2.91675 37.1875H5.83342V32.8125H2.91675Z" fill="white"/>
</svg>
