<svg width="71" height="70" viewBox="0 0 71 70" fill="none" xmlns="http://www.w3.org/2000/svg">
<path opacity="0.4" d="M64.6666 40.8334V49.5834C64.6666 54.425 60.7582 58.3334 55.9166 58.3334H52.9999C52.9999 55.125 50.3749 52.5 47.1666 52.5C43.9582 52.5 41.3333 55.125 41.3333 58.3334H29.6666C29.6666 55.125 27.0416 52.5 23.8333 52.5C20.6249 52.5 17.9999 55.125 17.9999 58.3334H15.0833C10.2416 58.3334 6.33325 54.425 6.33325 49.5834V40.8334H38.4166C41.6249 40.8334 44.2499 38.2084 44.2499 35V14.5834H49.6167C51.7167 14.5834 53.6416 15.7209 54.6916 17.5292L59.679 26.25H55.9166C54.3124 26.25 52.9999 27.5625 52.9999 29.1667V37.9167C52.9999 39.5209 54.3124 40.8334 55.9166 40.8334H64.6666Z" fill="#0C0422"/>
<path d="M23.8333 64.1667C27.055 64.1667 29.6667 61.555 29.6667 58.3333C29.6667 55.1117 27.055 52.5 23.8333 52.5C20.6117 52.5 18 55.1117 18 58.3333C18 61.555 20.6117 64.1667 23.8333 64.1667Z" fill="#0C0422"/>
<path d="M47.1666 64.1667C50.3882 64.1667 52.9999 61.555 52.9999 58.3333C52.9999 55.1117 50.3882 52.5 47.1666 52.5C43.9449 52.5 41.3333 55.1117 41.3333 58.3333C41.3333 61.555 43.9449 64.1667 47.1666 64.1667Z" fill="#0C0422"/>
<path d="M64.6667 36.5459V40.8333H55.9167C54.3125 40.8333 53 39.5208 53 37.9167V29.1667C53 27.5625 54.3125 26.25 55.9167 26.25H59.6791L63.9083 33.6583C64.4041 34.5333 64.6667 35.5251 64.6667 36.5459Z" fill="#0C0422"/>
<path d="M41.3335 5.83337H18.0002C12.3127 5.83337 7.58771 9.91671 6.56688 15.3125H20.9168C22.1127 15.3125 23.1043 16.3042 23.1043 17.5C23.1043 18.6959 22.1127 19.6875 20.9168 19.6875H6.3335V24.0625H15.0835C16.2793 24.0625 17.271 25.0542 17.271 26.25C17.271 27.4459 16.2793 28.4375 15.0835 28.4375H6.3335V32.8125H9.25016C10.446 32.8125 11.4377 33.8042 11.4377 35C11.4377 36.1959 10.446 37.1875 9.25016 37.1875H6.3335V40.8334H38.4168C41.6252 40.8334 44.2502 38.2084 44.2502 35V8.75004C44.2502 7.14587 42.9377 5.83337 41.3335 5.83337Z" fill="#0C0422"/>
<path d="M6.5668 15.3125H3.41675C2.22091 15.3125 1.22925 16.3042 1.22925 17.5C1.22925 18.6958 2.22091 19.6875 3.41675 19.6875H6.33342V17.5C6.33342 16.7417 6.42096 16.0125 6.5668 15.3125Z" fill="#0C0422"/>
<path d="M3.41675 24.0625C2.22091 24.0625 1.22925 25.0542 1.22925 26.25C1.22925 27.4458 2.22091 28.4375 3.41675 28.4375H6.33342V24.0625H3.41675Z" fill="#0C0422"/>
<path d="M3.41675 32.8125C2.22091 32.8125 1.22925 33.8042 1.22925 35C1.22925 36.1958 2.22091 37.1875 3.41675 37.1875H6.33342V32.8125H3.41675Z" fill="#0C0422"/>
</svg>
