<svg width="38" height="39" viewBox="0 0 38 39" fill="none" xmlns="http://www.w3.org/2000/svg">
<path opacity="0.4" d="M31.6667 11.6467V27.3534C31.6667 29.76 31.445 31.47 30.875 32.6892C30.875 32.705 30.8591 32.7367 30.8433 32.7525C30.495 33.1959 30.0358 33.4175 29.4975 33.4175C28.6583 33.4175 27.645 32.8634 26.5525 31.6917C25.2542 30.2984 23.2591 30.4092 22.1191 31.9292L20.52 34.0509C19.8867 34.9059 19.0475 35.3334 18.2083 35.3334C17.3692 35.3334 16.53 34.9059 15.8966 34.0509L14.2817 31.9134C13.1575 30.4092 11.1783 30.2984 9.87998 31.6759L9.86414 31.6917C8.07497 33.6075 6.4917 33.8925 5.57336 32.7525C5.55753 32.7367 5.54167 32.705 5.54167 32.6892C4.97167 31.47 4.75 29.76 4.75 27.3534V11.6467C4.75 9.24002 4.97167 7.53002 5.54167 6.31085C5.54167 6.29502 5.5417 6.27919 5.57336 6.26335C6.47586 5.10752 8.07497 5.39252 9.86414 7.30835L9.87998 7.32419C11.1783 8.70169 13.1575 8.59085 14.2817 7.08669L15.8966 4.94919C16.53 4.09419 17.3692 3.66669 18.2083 3.66669C19.0475 3.66669 19.8867 4.09419 20.52 4.94919L22.1191 7.07085C23.2591 8.59085 25.2542 8.70169 26.5525 7.30835C27.645 6.13669 28.6583 5.58252 29.4975 5.58252C30.0358 5.58252 30.495 5.82002 30.8433 6.26335C30.875 6.27919 30.875 6.29502 30.875 6.31085C31.445 7.53002 31.6667 9.24002 31.6667 11.6467Z" fill="#FF4D9E"/>
<path d="M25.3334 17.9167H12.6667C12.0176 17.9167 11.4792 17.3784 11.4792 16.7292C11.4792 16.08 12.0176 15.5417 12.6667 15.5417H25.3334C25.9826 15.5417 26.5209 16.08 26.5209 16.7292C26.5209 17.3784 25.9826 17.9167 25.3334 17.9167Z" fill="#FF4D9E"/>
<path d="M22.1667 23.4583H12.6667C12.0176 23.4583 11.4792 22.92 11.4792 22.2708C11.4792 21.6216 12.0176 21.0833 12.6667 21.0833H22.1667C22.8159 21.0833 23.3542 21.6216 23.3542 22.2708C23.3542 22.92 22.8159 23.4583 22.1667 23.4583Z" fill="#FF4D9E"/>
</svg>
