<svg width="59" height="62" viewBox="0 0 59 62" fill="none" xmlns="http://www.w3.org/2000/svg">
<path d="M8.4 61.2C5.4 56.1333 3.33333 50.8667 2.2 45.4C1.13333 39.8667 1.03333 34.4333 1.9 29.1C2.76667 23.7 4.56667 18.5667 7.3 13.7C10.1 8.76666 13.8 4.33332 18.4 0.399988L25.1 4.49999C26.3 5.23332 26.8333 6.16666 26.7 7.29999C26.5667 8.43333 26.1667 9.36666 25.5 10.1C23.9667 11.9667 22.5667 14.3333 21.3 17.2C20.0333 20.0667 19.1667 23.2333 18.7 26.7C18.3 30.1667 18.4333 33.8 19.1 37.6C19.7667 41.4 21.2 45.1333 23.4 48.8C24.4667 50.4667 24.7667 51.9667 24.3 53.3C23.9 54.5667 22.9333 55.4667 21.4 56L8.4 61.2ZM40.3 61.2C37.3 56.1333 35.2333 50.8667 34.1 45.4C33.0333 39.8667 32.9333 34.4333 33.8 29.1C34.6667 23.7 36.4667 18.5667 39.2 13.7C42 8.76666 45.7 4.33332 50.3 0.399988L57 4.49999C58.2 5.23332 58.7333 6.16666 58.6 7.29999C58.4667 8.43333 58.0667 9.36666 57.4 10.1C55.8667 11.9667 54.4667 14.3333 53.2 17.2C51.9333 20.0667 51.0667 23.2333 50.6 26.7C50.2 30.1667 50.3333 33.8 51 37.6C51.6667 41.4 53.1 45.1333 55.3 48.8C56.3667 50.4667 56.6667 51.9667 56.2 53.3C55.8 54.5667 54.8333 55.4667 53.3 56L40.3 61.2Z" fill="#F1F1F7"/>
</svg>
