<svg width="20" height="20" viewBox="0 0 20 20" fill="none" xmlns="http://www.w3.org/2000/svg">
<path d="M18.0583 11.9167L17.725 16.0834C17.6 17.3584 17.5 18.3334 15.2416 18.3334H4.7583C2.49997 18.3334 2.39997 17.3584 2.27497 16.0834L1.94163 11.9167C1.87497 11.225 2.09163 10.5834 2.4833 10.0917C2.49163 10.0834 2.49163 10.0834 2.49997 10.075C2.9583 9.51669 3.64997 9.16669 4.42497 9.16669H15.575C16.35 9.16669 17.0333 9.51669 17.4833 10.0584C17.4916 10.0667 17.5 10.075 17.5 10.0834C17.9083 10.575 18.1333 11.2167 18.0583 11.9167Z" stroke="#0C0422" stroke-width="2" stroke-miterlimit="10"/>
<path d="M2.91675 9.52505V5.23338C2.91675 2.40004 3.62508 1.69171 6.45841 1.69171H7.51675C8.57508 1.69171 8.81675 2.00838 9.21675 2.54171L10.2751 3.95838C10.5417 4.30838 10.7001 4.52504 11.4084 4.52504H13.5334C16.3667 4.52504 17.0751 5.23338 17.0751 8.06671V9.55838" stroke="#0C0422" stroke-width="2" stroke-miterlimit="10" stroke-linecap="round" stroke-linejoin="round"/>
<path d="M7.8584 14.1667H12.1417" stroke="#0C0422" stroke-width="2" stroke-miterlimit="10" stroke-linecap="round" stroke-linejoin="round"/>
</svg>
