<svg width="32" height="32" viewBox="0 0 32 32" fill="none" xmlns="http://www.w3.org/2000/svg">
<path d="M9.33331 7.66663C8.78665 7.66663 8.33331 7.21329 8.33331 6.66663V2.66663C8.33331 2.11996 8.78665 1.66663 9.33331 1.66663C9.87998 1.66663 10.3333 2.11996 10.3333 2.66663V6.66663C10.3333 7.21329 9.87998 7.66663 9.33331 7.66663Z" fill="url(#paint0_linear_69_1075)"/>
<path d="M20 7.66663C19.4533 7.66663 19 7.21329 19 6.66663V2.66663C19 2.11996 19.4533 1.66663 20 1.66663C20.5467 1.66663 21 2.11996 21 2.66663V6.66663C21 7.21329 20.5467 7.66663 20 7.66663Z" fill="url(#paint1_linear_69_1075)"/>
<path opacity="0.4" d="M26.6667 11.3333V22.6666C26.6667 26.6666 24.6667 29.3333 20 29.3333H9.33335C4.66669 29.3333 2.66669 26.6666 2.66669 22.6666V11.3333C2.66669 7.33329 4.66669 4.66663 9.33335 4.66663H20C24.6667 4.66663 26.6667 7.33329 26.6667 11.3333Z" fill="url(#paint2_linear_69_1075)"/>
<path d="M17.3333 15.6666H9.33331C8.78665 15.6666 8.33331 15.2133 8.33331 14.6666C8.33331 14.12 8.78665 13.6666 9.33331 13.6666H17.3333C17.88 13.6666 18.3333 14.12 18.3333 14.6666C18.3333 15.2133 17.88 15.6666 17.3333 15.6666Z" fill="url(#paint3_linear_69_1075)"/>
<path d="M13.3333 22.3334H9.33331C8.78665 22.3334 8.33331 21.88 8.33331 21.3334C8.33331 20.7867 8.78665 20.3334 9.33331 20.3334H13.3333C13.88 20.3334 14.3333 20.7867 14.3333 21.3334C14.3333 21.88 13.88 22.3334 13.3333 22.3334Z" fill="url(#paint4_linear_69_1075)"/>
<path d="M28 18.1733C26.8134 17.2266 25.3067 16.6666 23.6667 16.6666C22.0267 16.6666 20.4934 17.2399 19.2934 18.2133C17.68 19.4799 16.6667 21.4666 16.6667 23.6666C16.6667 24.9733 17.04 26.2266 17.68 27.2666C18.1734 28.08 18.8133 28.7866 19.5733 29.3333C20.72 30.1733 22.1334 30.6666 23.6667 30.6666C25.44 30.6666 27.04 30.0133 28.2667 28.92C28.8134 28.4666 29.28 27.9066 29.6533 27.2666C30.2933 26.2266 30.6667 24.9733 30.6667 23.6666C30.6667 21.44 29.6267 19.4533 28 18.1733ZM23.6667 27C23.6667 25.16 22.1734 23.6666 20.3334 23.6666C22.1734 23.6666 23.6667 22.1733 23.6667 20.3333C23.6667 22.1733 25.16 23.6666 27 23.6666C25.16 23.6666 23.6667 25.16 23.6667 27Z" fill="url(#paint5_linear_69_1075)"/>
<defs>
<linearGradient id="paint0_linear_69_1075" x1="8.38665" y1="4.20509" x2="10.3348" y2="4.21125" gradientUnits="userSpaceOnUse">
<stop offset="0.345" stop-color="#FF4D9E"/>
<stop offset="1" stop-color="#FF97BD"/>
</linearGradient>
<linearGradient id="paint1_linear_69_1075" x1="19.0533" y1="4.20509" x2="21.0014" y2="4.21125" gradientUnits="userSpaceOnUse">
<stop offset="0.345" stop-color="#FF4D9E"/>
<stop offset="1" stop-color="#FF97BD"/>
</linearGradient>
<linearGradient id="paint2_linear_69_1075" x1="3.30669" y1="15.1025" x2="26.6822" y2="15.3185" gradientUnits="userSpaceOnUse">
<stop offset="0.345" stop-color="#FF4D9E"/>
<stop offset="1" stop-color="#FF97BD"/>
</linearGradient>
<linearGradient id="paint3_linear_69_1075" x1="8.59998" y1="14.5128" x2="18.3187" y2="14.9743" gradientUnits="userSpaceOnUse">
<stop offset="0.345" stop-color="#FF4D9E"/>
<stop offset="1" stop-color="#FF97BD"/>
</linearGradient>
<linearGradient id="paint4_linear_69_1075" x1="8.49331" y1="21.1795" x2="14.333" y2="21.3459" gradientUnits="userSpaceOnUse">
<stop offset="0.345" stop-color="#FF4D9E"/>
<stop offset="1" stop-color="#FF97BD"/>
</linearGradient>
<linearGradient id="paint5_linear_69_1075" x1="17.04" y1="22.5897" x2="30.6757" y2="22.7192" gradientUnits="userSpaceOnUse">
<stop offset="0.345" stop-color="#FF4D9E"/>
<stop offset="1" stop-color="#FF97BD"/>
</linearGradient>
</defs>
</svg>
