<svg width="38" height="39" viewBox="0 0 38 39" fill="none" xmlns="http://www.w3.org/2000/svg">
<path opacity="0.4" d="M25.7133 6.27917H12.2866C8.37577 6.27917 5.20911 9.46167 5.20911 13.3567V28.2558C5.20911 32.1508 8.39161 35.3333 12.2866 35.3333H25.6974C29.6083 35.3333 32.7749 32.1508 32.7749 28.2558V13.3567C32.7908 9.44584 29.6083 6.27917 25.7133 6.27917Z" fill="#FF4D9E"/>
<path d="M22.7208 3.66666H15.2791C13.6325 3.66666 12.2866 4.99666 12.2866 6.64332V8.13166C12.2866 9.77832 13.6166 11.1083 15.2633 11.1083H22.7208C24.3675 11.1083 25.6975 9.77832 25.6975 8.13166V6.64332C25.7133 4.99666 24.3675 3.66666 22.7208 3.66666Z" fill="#FF4D9E"/>
<path d="M23.75 21.0042H12.6666C12.0175 21.0042 11.4791 20.4658 11.4791 19.8167C11.4791 19.1675 12.0175 18.6292 12.6666 18.6292H23.75C24.3991 18.6292 24.9375 19.1675 24.9375 19.8167C24.9375 20.4658 24.3991 21.0042 23.75 21.0042Z" fill="#FF4D9E"/>
<path d="M19.6016 27.3375H12.6666C12.0175 27.3375 11.4791 26.7992 11.4791 26.15C11.4791 25.5008 12.0175 24.9625 12.6666 24.9625H19.6016C20.2508 24.9625 20.7891 25.5008 20.7891 26.15C20.7891 26.7992 20.2508 27.3375 19.6016 27.3375Z" fill="#FF4D9E"/>
</svg>
