<svg width="32" height="32" viewBox="0 0 32 32" fill="none" xmlns="http://www.w3.org/2000/svg">
<path opacity="0.4" d="M22.3601 25.3066H9.64008C9.08008 25.3066 8.57341 24.9466 8.38674 24.4266L2.84008 8.8933C2.40008 7.6533 3.81341 6.59997 4.86674 7.35997L10.2001 11.1733C10.9067 11.68 11.9201 11.3733 12.2267 10.56L14.7467 3.83997C15.1734 2.67997 16.8134 2.67997 17.2401 3.83997L19.7601 10.56C20.0667 11.3866 21.0667 11.68 21.7867 11.1733L27.1201 7.35997C28.1867 6.59997 29.5867 7.66664 29.1467 8.8933L23.6001 24.4266C23.4267 24.9466 22.9201 25.3066 22.3601 25.3066Z" fill="white"/>
<path d="M22.6666 29.3333H9.33325C8.78659 29.3333 8.33325 28.88 8.33325 28.3333C8.33325 27.7866 8.78659 27.3333 9.33325 27.3333H22.6666C23.2133 27.3333 23.6666 27.7866 23.6666 28.3333C23.6666 28.88 23.2133 29.3333 22.6666 29.3333Z" fill="white"/>
<path d="M19.3334 19.6667H12.6667C12.1201 19.6667 11.6667 19.2134 11.6667 18.6667C11.6667 18.12 12.1201 17.6667 12.6667 17.6667H19.3334C19.8801 17.6667 20.3334 18.12 20.3334 18.6667C20.3334 19.2134 19.8801 19.6667 19.3334 19.6667Z" fill="white"/>
</svg>
