<svg width="38" height="39" viewBox="0 0 38 39" fill="none" xmlns="http://www.w3.org/2000/svg">
<path opacity="0.4" d="M34.8333 22.6667V27.4167C34.8333 30.045 32.7116 32.1667 30.0833 32.1667H28.5C28.5 30.425 27.075 29 25.3333 29C23.5916 29 22.1666 30.425 22.1666 32.1667H15.8333C15.8333 30.425 14.4083 29 12.6666 29C10.925 29 9.49996 30.425 9.49996 32.1667H7.91663C5.28829 32.1667 3.16663 30.045 3.16663 27.4167V22.6667H20.5833C22.325 22.6667 23.75 21.2417 23.75 19.5V8.41667H26.6633C27.8033 8.41667 28.8483 9.03419 29.4183 10.0159L32.1258 14.75H30.0833C29.2125 14.75 28.5 15.4625 28.5 16.3333V21.0833C28.5 21.9542 29.2125 22.6667 30.0833 22.6667H34.8333Z" fill="#FF4D9E"/>
<path d="M12.6667 35.3333C14.4156 35.3333 15.8333 33.9156 15.8333 32.1667C15.8333 30.4178 14.4156 29 12.6667 29C10.9178 29 9.5 30.4178 9.5 32.1667C9.5 33.9156 10.9178 35.3333 12.6667 35.3333Z" fill="#FF4D9E"/>
<path d="M25.3333 35.3333C27.0822 35.3333 28.5 33.9156 28.5 32.1667C28.5 30.4178 27.0822 29 25.3333 29C23.5844 29 22.1666 30.4178 22.1666 32.1667C22.1666 33.9156 23.5844 35.3333 25.3333 35.3333Z" fill="#FF4D9E"/>
<path d="M34.8333 20.3392V22.6667H30.0833C29.2125 22.6667 28.5 21.9542 28.5 21.0833V16.3333C28.5 15.4625 29.2125 14.75 30.0833 14.75H32.1258L34.4216 18.7716C34.6908 19.2466 34.8333 19.785 34.8333 20.3392Z" fill="#FF4D9E"/>
<path d="M22.1667 3.66667H9.50008C6.41258 3.66667 3.84761 5.88334 3.29344 8.81251H11.0834C11.7326 8.81251 12.2709 9.35084 12.2709 10C12.2709 10.6492 11.7326 11.1875 11.0834 11.1875H3.16675V13.5625H7.91675C8.56591 13.5625 9.10425 14.1008 9.10425 14.75C9.10425 15.3992 8.56591 15.9375 7.91675 15.9375H3.16675V18.3125H4.75008C5.39925 18.3125 5.93758 18.8508 5.93758 19.5C5.93758 20.1492 5.39925 20.6875 4.75008 20.6875H3.16675V22.6667H20.5834C22.3251 22.6667 23.7501 21.2417 23.7501 19.5V5.25001C23.7501 4.37917 23.0376 3.66667 22.1667 3.66667Z" fill="#FF4D9E"/>
<path d="M3.2934 8.8125H1.58337C0.934207 8.8125 0.395874 9.35083 0.395874 10C0.395874 10.6492 0.934207 11.1875 1.58337 11.1875H3.16671V10C3.16671 9.58833 3.21423 9.1925 3.2934 8.8125Z" fill="#FF4D9E"/>
<path d="M1.58337 13.5625C0.934207 13.5625 0.395874 14.1008 0.395874 14.75C0.395874 15.3992 0.934207 15.9375 1.58337 15.9375H3.16671V13.5625H1.58337Z" fill="#FF4D9E"/>
<path d="M1.58337 18.3125C0.934207 18.3125 0.395874 18.8508 0.395874 19.5C0.395874 20.1492 0.934207 20.6875 1.58337 20.6875H3.16671V18.3125H1.58337Z" fill="#FF4D9E"/>
</svg>
