<svg width="31" height="30" viewBox="0 0 31 30" fill="none" xmlns="http://www.w3.org/2000/svg">
<path d="M28 18.75V11.25C28 5 25.5 2.5 19.25 2.5H11.75C5.5 2.5 3 5 3 11.25V18.75C3 25 5.5 27.5 11.75 27.5H19.25C25.5 27.5 28 25 28 18.75Z" stroke="white" stroke-width="2" stroke-linecap="round" stroke-linejoin="round"/>
<path d="M3.64999 8.88751H27.35" stroke="white" stroke-width="2" stroke-linecap="round" stroke-linejoin="round"/>
<path d="M11.15 2.63751V8.71251" stroke="white" stroke-width="2" stroke-linecap="round" stroke-linejoin="round"/>
<path d="M19.85 2.63751V8.15001" stroke="white" stroke-width="2" stroke-linecap="round" stroke-linejoin="round"/>
<path d="M12.6875 18.0625V16.5625C12.6875 14.6375 14.05 13.85 15.7125 14.8125L17.0125 15.5625L18.3125 16.3125C19.975 17.275 19.975 18.85 18.3125 19.8125L17.0125 20.5625L15.7125 21.3125C14.05 22.275 12.6875 21.4875 12.6875 19.5625V18.0625V18.0625Z" stroke="white" stroke-width="2" stroke-miterlimit="10" stroke-linecap="round" stroke-linejoin="round"/>
</svg>
