<svg width="38" height="39" viewBox="0 0 38 39" fill="none" xmlns="http://www.w3.org/2000/svg">
<path opacity="0.8" d="M20.4251 4.49L20.3776 4.60083L15.7859 15.2567H11.2734C10.1967 15.2567 9.1834 15.4625 8.2334 15.8742L11.0042 9.25583L11.0676 9.11333L11.1626 8.86C11.2101 8.74917 11.2417 8.65416 11.2892 8.575C13.3634 3.7775 15.7067 2.685 20.4251 4.49Z" fill="#FF4D9E"/>
<path d="M28.9592 15.5733C28.2467 15.3675 27.5026 15.2567 26.7267 15.2567H15.7859L20.3776 4.60084L20.4251 4.49001C20.6467 4.56917 20.8842 4.68001 21.1217 4.75917L24.6209 6.23167C26.5684 7.03917 27.9301 7.87834 28.7692 8.89167C28.9117 9.08167 29.0384 9.25584 29.1651 9.46167C29.3076 9.68334 29.4184 9.90501 29.4817 10.1425C29.5451 10.285 29.5926 10.4117 29.6242 10.5542C30.0359 11.9 29.7826 13.5308 28.9592 15.5733Z" fill="#FF4D9E"/>
<path opacity="0.4" d="M34.4533 22.9833V26.0708C34.4533 26.3875 34.4375 26.7042 34.4216 27.005C34.1208 32.5467 31.0333 35.3333 25.175 35.3333H12.825C12.4291 35.3333 12.065 35.3017 11.7008 35.2542C6.6658 34.9217 3.97413 32.23 3.6258 27.195C3.5783 26.815 3.54663 26.4508 3.54663 26.0708V22.9833C3.54663 19.8008 5.4783 17.0617 8.2333 15.8742C9.1833 15.4625 10.1966 15.2567 11.2733 15.2567H26.7266C27.5025 15.2567 28.2466 15.3675 28.9591 15.5733C32.1258 16.5392 34.4533 19.4842 34.4533 22.9833Z" fill="#FF4D9E"/>
<path opacity="0.6" d="M11.0041 9.25583L8.2333 15.8742C5.4783 17.0617 3.54663 19.8008 3.54663 22.9833V18.3442C3.54663 13.8475 6.74496 10.095 11.0041 9.25583Z" fill="#FF4D9E"/>
<path opacity="0.6" d="M34.4534 18.3442V22.9833C34.4534 19.4842 32.1259 16.5392 28.9592 15.5733C29.7826 13.5308 30.0359 11.9 29.6242 10.5542C29.5926 10.4117 29.5451 10.285 29.4817 10.1425C32.4426 11.6783 34.4534 14.7975 34.4534 18.3442Z" fill="#FF4D9E"/>
<path d="M22.9584 27.0208H15.0417C14.3926 27.0208 13.8542 26.4825 13.8542 25.8333C13.8542 25.1842 14.3926 24.6458 15.0417 24.6458H22.9584C23.6076 24.6458 24.1459 25.1842 24.1459 25.8333C24.1459 26.4825 23.6076 27.0208 22.9584 27.0208Z" fill="#FF4D9E"/>
</svg>
