<svg width="115" height="41" viewBox="0 0 115 41" fill="none" xmlns="http://www.w3.org/2000/svg">
<path d="M9.32 32.48C7.77333 32.48 6.29333 32.2133 4.88 31.68C3.49333 31.1467 2.36 30.3333 1.48 29.24C0.6 28.1467 0.16 26.7867 0.16 25.16C0.16 23.72 0.48 22.6 1.12 21.8C1.76 20.9733 2.56 20.4 3.52 20.08C4.48 19.76 5.41333 19.6 6.32 19.6C5.46667 20.5067 4.81333 21.44 4.36 22.4C3.93333 23.36 3.72 24.28 3.72 25.16C3.72 26.0667 3.94667 26.92 4.4 27.72C4.88 28.4933 5.58667 29.12 6.52 29.6C7.45333 30.1067 8.61333 30.36 10 30.36C11.2 30.36 12.36 30.16 13.48 29.76C14.6267 29.36 15.56 28.76 16.28 27.96C17.0267 27.16 17.4 26.16 17.4 24.96C17.4 23.8667 17.08 22.9333 16.44 22.16C15.8267 21.36 15.0267 20.6533 14.04 20.04C13.0533 19.4 12.0133 18.8 10.92 18.24C9.82667 17.6533 8.78667 17.0267 7.8 16.36C6.81333 15.6933 6 14.92 5.36 14.04C4.74667 13.16 4.44 12.1067 4.44 10.88C4.44 9.78667 4.70667 8.62667 5.24 7.4C5.8 6.14667 6.58667 4.97333 7.6 3.88C8.61333 2.78667 9.84 1.90667 11.28 1.24C12.72 0.546666 14.32 0.199999 16.08 0.199999C17.92 0.199999 19.2133 0.586665 19.96 1.36C20.7067 2.13333 21.08 3.14666 21.08 4.4C21.08 5.38667 20.9067 6.44 20.56 7.56C20.2133 8.68 19.7867 9.74667 19.28 10.76C18.8 11.7733 18.3333 12.64 17.88 13.36C17.2933 13.2267 16.8533 13 16.56 12.68C16.2667 12.3333 16.12 11.88 16.12 11.32C16.12 10.76 16.2267 10.1333 16.44 9.44C16.68 8.74667 16.9467 8.02666 17.24 7.28C17.56 6.53333 17.8267 5.81333 18.04 5.12C18.28 4.4 18.4 3.77333 18.4 3.24C18.4 2.76 18.2533 2.38666 17.96 2.12C17.6933 1.85333 17.1333 1.72 16.28 1.72C15 1.72 13.8267 2 12.76 2.56C11.6933 3.12 10.76 3.82666 9.96 4.68C9.18667 5.53333 8.58667 6.44 8.16 7.4C7.73333 8.33333 7.52 9.18667 7.52 9.96C7.52 10.92 7.82667 11.7467 8.44 12.44C9.05333 13.1067 9.84 13.72 10.8 14.28C11.7867 14.84 12.8133 15.4 13.88 15.96C14.9733 16.52 16 17.1467 16.96 17.84C17.9467 18.5333 18.7467 19.36 19.36 20.32C19.9733 21.28 20.28 22.4533 20.28 23.84C20.28 25.2267 19.96 26.4533 19.32 27.52C18.7067 28.5867 17.8667 29.48 16.8 30.2C15.7333 30.9467 14.5467 31.5067 13.24 31.88C11.96 32.28 10.6533 32.48 9.32 32.48ZM24.5353 30.52C23.9486 30.52 23.522 30.0667 23.2553 29.16C23.0153 28.2533 22.8953 27.2 22.8953 26C22.8953 24.7733 23.0953 23.2933 23.4953 21.56C23.922 19.8267 24.482 18 25.1753 16.08C25.8953 14.16 26.682 12.28 27.5353 10.44C28.4153 8.6 29.3086 6.93333 30.2153 5.44C31.1486 3.92 32.0286 2.70667 32.8553 1.8C33.7086 0.893332 34.4553 0.439998 35.0953 0.439998C35.6553 0.439998 36.082 0.746665 36.3753 1.36C36.6686 1.97333 36.8153 2.61333 36.8153 3.28C36.8153 4 36.642 4.89333 36.2953 5.96C35.9753 7 35.522 8.12 34.9353 9.32C34.3486 10.52 33.6553 11.7067 32.8553 12.88C32.082 14.0267 31.2286 15.08 30.2953 16.04C29.3886 17 28.442 17.7733 27.4553 18.36C27.1086 19.2667 26.8286 20.12 26.6153 20.92C26.4286 21.6933 26.2953 22.4267 26.2153 23.12C26.1353 23.8133 26.0953 24.4933 26.0953 25.16C26.0953 25.2933 26.0953 25.44 26.0953 25.6C26.122 25.7333 26.1353 25.8667 26.1353 26C26.242 25.84 26.4153 25.4267 26.6553 24.76C26.8953 24.0933 27.2153 23.32 27.6153 22.44C28.042 21.5333 28.562 20.6533 29.1753 19.8C29.7886 18.92 30.5086 18.2 31.3353 17.64C32.162 17.0533 33.1086 16.76 34.1753 16.76C35.082 16.76 35.7886 16.9733 36.2953 17.4C36.802 17.8 37.162 18.3067 37.3753 18.92C37.5886 19.5067 37.6953 20.1067 37.6953 20.72C37.6953 21.5733 37.5486 22.3733 37.2553 23.12C36.9886 23.8667 36.7086 24.5733 36.4153 25.24C36.1486 25.88 36.0153 26.4933 36.0153 27.08C36.0153 27.56 36.122 27.8933 36.3353 28.08C36.5486 28.2667 36.802 28.36 37.0953 28.36C37.682 28.36 38.362 28.0667 39.1353 27.48C39.9353 26.8933 40.722 26.12 41.4953 25.16C42.2953 24.1733 42.9753 23.0933 43.5353 21.92L44.1753 22.6C43.562 23.9333 42.842 25.16 42.0153 26.28C41.1886 27.4 40.282 28.2933 39.2953 28.96C38.3086 29.6267 37.242 29.96 36.0953 29.96C35.082 29.96 34.3086 29.6933 33.7753 29.16C33.242 28.6267 32.9753 27.96 32.9753 27.16C32.9753 26.6 33.0686 25.9867 33.2553 25.32C33.4686 24.6267 33.6686 23.9333 33.8553 23.24C34.042 22.5467 34.1353 21.92 34.1353 21.36C34.1353 20.72 33.9886 20.28 33.6953 20.04C33.4286 19.8 33.0953 19.68 32.6953 19.68C32.0286 19.68 31.4286 19.9467 30.8953 20.48C30.362 20.9867 29.882 21.6533 29.4553 22.48C29.0286 23.3067 28.6286 24.1867 28.2553 25.12C27.882 26.0267 27.5086 26.8933 27.1353 27.72C26.762 28.5467 26.362 29.2133 25.9353 29.72C25.5353 30.2533 25.0686 30.52 24.5353 30.52ZM28.2953 15.8C28.9886 15.1867 29.6553 14.4533 30.2953 13.6C30.9353 12.7467 31.522 11.8667 32.0553 10.96C32.6153 10.0267 33.0953 9.13333 33.4953 8.28C33.922 7.4 34.2553 6.61333 34.4953 5.92C34.7353 5.22667 34.8686 4.69333 34.8953 4.32C34.8953 4.29333 34.8953 4.28 34.8953 4.28C34.8953 4.25333 34.8953 4.22667 34.8953 4.2C34.7353 4.2 34.3886 4.53333 33.8553 5.2C33.3486 5.84 32.7486 6.72 32.0553 7.84C31.3886 8.93333 30.7086 10.1733 30.0153 11.56C29.3486 12.9467 28.7753 14.36 28.2953 15.8ZM44.7009 30.88C43.8209 30.88 43.0609 30.5867 42.4209 30C41.7543 29.4133 41.4209 28.5333 41.4209 27.36C41.4209 26.4267 41.6343 25.4133 42.0609 24.32C42.4876 23.2267 43.0743 22.1467 43.8209 21.08C44.5676 20.0133 45.4209 19.0533 46.3809 18.2C47.3409 17.32 48.3676 16.6133 49.4609 16.08C50.5543 15.5467 51.6476 15.28 52.7409 15.28C53.8876 15.28 54.8609 15.5733 55.6609 16.16C56.4609 16.7467 56.8609 17.52 56.8609 18.48C56.8609 19.2 56.6076 19.72 56.1009 20.04C55.5943 20.36 54.9943 20.4533 54.3009 20.32C54.3543 20.08 54.3943 19.84 54.4209 19.6C54.4743 19.36 54.5009 19.1067 54.5009 18.84C54.5009 18.3067 54.3943 17.8267 54.1809 17.4C53.9676 16.9733 53.5143 16.76 52.8209 16.76C52.0743 16.76 51.3143 17.0133 50.5409 17.52C49.7676 18.0267 49.0209 18.6933 48.3009 19.52C47.6076 20.32 46.9809 21.2133 46.4209 22.2C45.8609 23.16 45.4209 24.1067 45.1009 25.04C44.7809 25.9733 44.6209 26.8133 44.6209 27.56C44.6209 28.4133 44.9276 28.84 45.5409 28.84C46.1543 28.84 46.8343 28.5467 47.5809 27.96C48.3276 27.3467 49.0743 26.5867 49.8209 25.68C50.5943 24.7733 51.3276 23.8533 52.0209 22.92C52.7143 21.96 53.3143 21.1467 53.8209 20.48C53.9009 20.3467 54.0076 20.28 54.1409 20.28C54.2476 20.3067 54.4476 20.3733 54.7409 20.48C55.0609 20.56 55.3543 20.6933 55.6209 20.88C55.8876 21.0667 56.0209 21.3067 56.0209 21.6C56.0209 21.8667 55.9009 22.2133 55.6609 22.64C55.4476 23.04 55.1809 23.4933 54.8609 24C54.5676 24.48 54.3009 24.9733 54.0609 25.48C53.8476 25.96 53.7409 26.4267 53.7409 26.88C53.7409 27.2267 53.8343 27.56 54.0209 27.88C54.2076 28.1733 54.5143 28.32 54.9409 28.32C55.5809 28.32 56.4743 27.8533 57.6209 26.92C58.7943 25.96 59.9809 24.3467 61.1809 22.08L61.9409 22.84C61.3009 24.28 60.5276 25.56 59.6209 26.68C58.7409 27.7733 57.8076 28.6267 56.8209 29.24C55.8343 29.88 54.8343 30.2 53.8209 30.2C52.7276 30.2 51.9143 29.8533 51.3809 29.16C50.8476 28.4667 50.5543 27.72 50.5009 26.92C50.5009 26.8667 50.5009 26.8267 50.5009 26.8C50.5009 26.7733 50.5009 26.7467 50.5009 26.72C49.4343 28 48.4476 29.0133 47.5409 29.76C46.6609 30.5067 45.7143 30.88 44.7009 30.88ZM62.1544 40.2C61.4877 40.2 60.861 39.9867 60.2744 39.56C59.7144 39.16 59.4344 38.5067 59.4344 37.6C59.4344 36.7467 59.6877 35.9733 60.1944 35.28C60.701 34.6133 61.3544 33.9867 62.1544 33.4C62.9544 32.84 63.8077 32.32 64.7144 31.84C65.6477 31.3867 66.541 30.96 67.3944 30.56C67.6877 29.7867 68.0077 28.8133 68.3544 27.64C68.7277 26.44 69.0477 25.3333 69.3144 24.32C68.4877 25.4667 67.6077 26.48 66.6744 27.36C65.741 28.24 64.701 28.68 63.5544 28.68C63.0744 28.68 62.5677 28.5867 62.0344 28.4C61.501 28.1867 61.0477 27.84 60.6744 27.36C60.3277 26.8533 60.1544 26.1867 60.1544 25.36C60.1544 24.6667 60.2744 23.8267 60.5144 22.84C60.781 21.8533 61.101 20.8933 61.4744 19.96C61.8744 19 62.2877 18.2133 62.7144 17.6C63.141 16.96 63.5144 16.64 63.8344 16.64C63.9944 16.64 64.221 16.7067 64.5144 16.84C64.8344 16.9467 65.141 17.1067 65.4344 17.32C65.7277 17.5067 65.9144 17.72 65.9944 17.96C65.7544 18.28 65.4877 18.7467 65.1944 19.36C64.901 19.9467 64.621 20.6133 64.3544 21.36C64.0877 22.08 63.861 22.7867 63.6744 23.48C63.5144 24.1733 63.4344 24.7733 63.4344 25.28C63.4344 25.68 63.5144 26.0267 63.6744 26.32C63.8344 26.6133 64.141 26.76 64.5944 26.76C65.181 26.76 65.781 26.52 66.3944 26.04C67.0344 25.56 67.6477 24.9467 68.2344 24.2C68.8477 23.4533 69.3944 22.6933 69.8744 21.92C69.9277 21.7333 69.981 21.44 70.0344 21.04C70.0877 20.64 70.181 20.2267 70.3144 19.8C70.4477 19.3467 70.6744 18.9333 70.9944 18.56C71.341 18.1867 71.821 18 72.4344 18C72.6477 18 72.8477 18.0133 73.0344 18.04C73.221 18.0667 73.4477 18.1067 73.7144 18.16C73.7144 18.56 73.5677 19.3467 73.2744 20.52C73.0077 21.6667 72.6477 23 72.1944 24.52C71.741 26.04 71.2344 27.56 70.6744 29.08C71.7944 28.6267 72.9544 27.88 74.1544 26.84C75.381 25.7733 76.3677 24.2667 77.1144 22.32L77.7944 22.88C77.3944 24.2133 76.781 25.3733 75.9544 26.36C75.1544 27.3467 74.2477 28.1867 73.2344 28.88C72.221 29.5733 71.1944 30.1467 70.1544 30.6C69.4344 32.3333 68.6477 33.9333 67.7944 35.4C66.9677 36.8667 66.0877 38.0267 65.1544 38.88C64.221 39.76 63.221 40.2 62.1544 40.2ZM61.7544 38.72C62.261 38.72 62.9677 38.1867 63.8744 37.12C64.781 36.0533 65.701 34.4533 66.6344 32.32C65.781 32.7467 64.9144 33.24 64.0344 33.8C63.181 34.3867 62.461 35 61.8744 35.64C61.2877 36.28 60.9944 36.9333 60.9944 37.6C60.9944 37.8667 61.0477 38.12 61.1544 38.36C61.2877 38.6 61.4877 38.72 61.7544 38.72ZM89.73 29.8C88.69 29.8 87.89 29.5333 87.33 29C86.7967 28.4933 86.53 27.84 86.53 27.04C86.53 26.5067 86.6233 25.9467 86.81 25.36C86.9967 24.7467 87.1833 24.1333 87.37 23.52C87.5567 22.9067 87.65 22.32 87.65 21.76C87.65 21.1733 87.5033 20.7733 87.21 20.56C86.9433 20.32 86.6233 20.2 86.25 20.2C85.45 20.2 84.6233 20.5333 83.77 21.2C82.9433 21.84 82.13 22.6533 81.33 23.64C80.5567 24.6267 79.8233 25.6533 79.13 26.72C78.4367 27.7867 77.8367 28.7467 77.33 29.6C76.8233 29.6 76.3433 29.5067 75.89 29.32C75.4367 29.16 75.05 28.8667 74.73 28.44C74.7567 28.3067 74.9167 27.9067 75.21 27.24C75.4767 26.5467 75.7833 25.7333 76.13 24.8C76.4767 23.84 76.7833 22.84 77.05 21.8C77.3167 20.76 77.45 19.8133 77.45 18.96C77.6367 18.7467 77.9167 18.5333 78.29 18.32C78.69 18.1067 79.1033 18 79.53 18C80.4633 18 80.93 18.4 80.93 19.2C80.93 19.52 80.8633 20 80.73 20.64C80.6233 21.2533 80.4633 21.96 80.25 22.76C80.9433 21.8267 81.7033 20.9467 82.53 20.12C83.3567 19.2933 84.21 18.6267 85.09 18.12C85.9967 17.5867 86.9033 17.32 87.81 17.32C88.9567 17.32 89.7967 17.7067 90.33 18.48C90.89 19.2533 91.17 20.1067 91.17 21.04C91.17 21.84 91.0367 22.5867 90.77 23.28C90.5033 23.9733 90.2367 24.6267 89.97 25.24C89.73 25.8533 89.61 26.4533 89.61 27.04C89.61 27.4667 89.7033 27.7733 89.89 27.96C90.1033 28.12 90.33 28.2 90.57 28.2C91.21 28.2 91.8767 27.8933 92.57 27.28C93.2633 26.6667 93.9167 25.8933 94.53 24.96C95.17 24 95.73 23.04 96.21 22.08L96.89 22.64C96.33 23.9467 95.69 25.1467 94.97 26.24C94.2767 27.3067 93.49 28.1733 92.61 28.84C91.7567 29.48 90.7967 29.8 89.73 29.8ZM97.3963 30.88C96.5163 30.88 95.7563 30.5867 95.1162 30C94.4496 29.4133 94.1162 28.5333 94.1162 27.36C94.1162 26.4267 94.3296 25.4133 94.7562 24.32C95.1829 23.2267 95.7696 22.1467 96.5163 21.08C97.2629 20.0133 98.1163 19.0533 99.0763 18.2C100.036 17.32 101.063 16.6133 102.156 16.08C103.25 15.5467 104.343 15.28 105.436 15.28C106.583 15.28 107.556 15.5733 108.356 16.16C109.156 16.7467 109.556 17.52 109.556 18.48C109.556 19.2 109.303 19.72 108.796 20.04C108.29 20.36 107.69 20.4533 106.996 20.32C107.05 20.08 107.09 19.84 107.116 19.6C107.17 19.36 107.196 19.1067 107.196 18.84C107.196 18.3067 107.09 17.8267 106.876 17.4C106.663 16.9733 106.21 16.76 105.516 16.76C104.77 16.76 104.01 17.0133 103.236 17.52C102.463 18.0267 101.716 18.6933 100.996 19.52C100.303 20.32 99.6763 21.2133 99.1163 22.2C98.5563 23.16 98.1163 24.1067 97.7962 25.04C97.4763 25.9733 97.3163 26.8133 97.3163 27.56C97.3163 28.4133 97.6229 28.84 98.2363 28.84C98.8496 28.84 99.5296 28.5467 100.276 27.96C101.023 27.3467 101.77 26.5867 102.516 25.68C103.29 24.7733 104.023 23.8533 104.716 22.92C105.41 21.96 106.01 21.1467 106.516 20.48C106.596 20.3467 106.703 20.28 106.836 20.28C106.943 20.3067 107.143 20.3733 107.436 20.48C107.756 20.56 108.05 20.6933 108.316 20.88C108.583 21.0667 108.716 21.3067 108.716 21.6C108.716 21.8667 108.596 22.2133 108.356 22.64C108.143 23.04 107.876 23.4933 107.556 24C107.263 24.48 106.996 24.9733 106.756 25.48C106.543 25.96 106.436 26.4267 106.436 26.88C106.436 27.2267 106.53 27.56 106.716 27.88C106.903 28.1733 107.21 28.32 107.636 28.32C108.276 28.32 109.17 27.8533 110.316 26.92C111.49 25.96 112.676 24.3467 113.876 22.08L114.636 22.84C113.996 24.28 113.223 25.56 112.316 26.68C111.436 27.7733 110.503 28.6267 109.516 29.24C108.53 29.88 107.53 30.2 106.516 30.2C105.423 30.2 104.61 29.8533 104.076 29.16C103.543 28.4667 103.25 27.72 103.196 26.92C103.196 26.8667 103.196 26.8267 103.196 26.8C103.196 26.7733 103.196 26.7467 103.196 26.72C102.13 28 101.143 29.0133 100.236 29.76C99.3563 30.5067 98.4096 30.88 97.3963 30.88Z" fill="#0C0422"/>
</svg>
